<svg width="52" height="52" viewBox="0 0 52 52" fill="none" xmlns="http://www.w3.org/2000/svg"><path d="M26 52c14.36 0 26-11.64 26-26S40.36 0 26 0 0 11.64 0 26s11.64 26 26 26z" fill="#2254F4"/><path fill-rule="evenodd" clip-rule="evenodd" d="M27.29 15.237l.74 1.924h-5.426V15.9l-6.855 1.15v1.927l2.887-.486v3.105h-2.889v1.906h2.459L15 34.033h1.892l1.744-5.673v8.297h2.014V23.504h1.954v-1.907H20.65v-3.443l1.954-.328v1.405h14.29v-2.07h-6.451l-.738-1.924H27.29zm-1.249 5.66h7.405v4.28h3.449v11.48H34.88v-9.41h-1.433v7.023H26.04v-7.024h-1.42v9.41h-2.015v-11.48h3.437v-4.28zm5.494 4.28h-3.583v-2.21h3.583v2.21zM27.952 32.2h3.583v-4.954h-3.583V32.2z" fill="#fff"/></svg>